<?xml version="1.0" encoding="utf-8"?>
<!-- Generator: Adobe Illustrator 16.0.0, SVG Export Plug-In . SVG Version: 6.00 Build 0)  -->
<!DOCTYPE svg PUBLIC "-//W3C//DTD SVG 1.1//EN" "http://www.w3.org/Graphics/SVG/1.1/DTD/svg11.dtd">
<svg version="1.1" id="Layer_1" xmlns="http://www.w3.org/2000/svg" xmlns:xlink="http://www.w3.org/1999/xlink" x="0px" y="0px"
	 width="100px" height="177px" viewBox="0 0 100 177" enable-background="new 0 0 100 177" xml:space="preserve">
<rect fill="#424242" width="100" height="177"/>
<path fill="#9E9E9E" d="M56.167,85.5c-0.401,0-0.76,0.207-1.021,0.48l-5.993,6.295c-0.26,0.291-0.543,0.269-0.792,0l-2.996-3.25
	c-0.3-0.323-0.686-0.52-1.107-0.525c-0.422-0.005-0.814,0.205-1.115,0.543l-4.984,5.593c-0.48,0.48,0.26,1.21,0.737,0.683
	l4.986-5.594c0.355-0.41,0.626-0.154,0.776,0.019l2.996,3.25c0.298,0.325,0.686,0.507,1.102,0.507s0.8-0.188,1.102-0.506
	l5.993-6.297c0.311-0.317,0.619-0.162,0.793,0l4.486,4.636c0.471,0.498,1.197-0.24,0.707-0.718L57.35,85.98
	c-0.338-0.35-0.766-0.48-1.185-0.48H56.167z M38.5,97.5h23c0.277,0,0.5,0.223,0.5,0.5s-0.223,0.5-0.5,0.5h-23
	c-0.277,0-0.5-0.223-0.5-0.5S38.223,97.5,38.5,97.5z M43.5,79.5c-1.375,0-2.5,1.125-2.5,2.5s1.125,2.5,2.5,2.5S46,83.375,46,82
	S44.875,79.5,43.5,79.5z M43.5,80.5c0.834,0,1.5,0.666,1.5,1.5s-0.666,1.5-1.5,1.5S42,82.834,42,82S42.666,80.5,43.5,80.5z
	 M36.5,73.5c-0.822,0-1.5,0.678-1.5,1.5v27c0,0.822,0.678,1.5,1.5,1.5h27c0.822,0,1.5-0.678,1.5-1.5V75c0-0.822-0.678-1.5-1.5-1.5
	H36.5z M36.5,74.5h27c0.286,0,0.5,0.214,0.5,0.5v27c0,0.286-0.214,0.5-0.5,0.5h-27c-0.286,0-0.5-0.214-0.5-0.5V75
	C36,74.714,36.214,74.5,36.5,74.5z"/>
<g>
</g>
<g>
</g>
<g>
</g>
<g>
</g>
<g>
</g>
<g>
</g>
<g>
</g>
<g>
</g>
<g>
</g>
<g>
</g>
<g>
</g>
<g>
</g>
<g>
</g>
<g>
</g>
<g>
</g>
</svg>
