<?xml version="1.0" encoding="utf-8"?>
<!-- Generator: Adobe Illustrator 16.0.0, SVG Export Plug-In . SVG Version: 6.00 Build 0)  -->
<!DOCTYPE svg PUBLIC "-//W3C//DTD SVG 1.1//EN" "http://www.w3.org/Graphics/SVG/1.1/DTD/svg11.dtd">
<svg version="1.1" id="Layer_1" xmlns="http://www.w3.org/2000/svg" xmlns:xlink="http://www.w3.org/1999/xlink" x="0px" y="0px"
	 width="100px" height="100px" viewBox="0 0 100 100" enable-background="new 0 0 100 100" xml:space="preserve">
<rect fill="#424242" width="100" height="100"/>
<path fill="#9E9E9E" d="M56.167,47c-0.401,0-0.76,0.207-1.021,0.48l-5.993,6.295c-0.26,0.291-0.543,0.269-0.792,0l-2.996-3.25
	c-0.3-0.323-0.686-0.52-1.107-0.525c-0.422-0.005-0.814,0.205-1.115,0.543l-4.984,5.593c-0.48,0.48,0.26,1.21,0.737,0.683
	l4.986-5.594c0.355-0.41,0.626-0.154,0.776,0.019l2.996,3.25C47.953,54.818,48.341,55,48.757,55s0.8-0.188,1.102-0.506l5.993-6.297
	c0.311-0.317,0.619-0.162,0.793,0l4.486,4.636c0.471,0.498,1.197-0.24,0.707-0.718L57.35,47.48C57.012,47.13,56.584,47,56.165,47
	H56.167z M38.5,59h23c0.277,0,0.5,0.223,0.5,0.5S61.777,60,61.5,60h-23c-0.277,0-0.5-0.223-0.5-0.5S38.223,59,38.5,59z M43.5,41
	c-1.375,0-2.5,1.125-2.5,2.5s1.125,2.5,2.5,2.5s2.5-1.125,2.5-2.5S44.875,41,43.5,41z M43.5,42c0.834,0,1.5,0.666,1.5,1.5
	S44.334,45,43.5,45S42,44.334,42,43.5S42.666,42,43.5,42z M36.5,35c-0.822,0-1.5,0.678-1.5,1.5v27c0,0.822,0.678,1.5,1.5,1.5h27
	c0.822,0,1.5-0.678,1.5-1.5v-27c0-0.822-0.678-1.5-1.5-1.5H36.5z M36.5,36h27c0.286,0,0.5,0.214,0.5,0.5v27
	c0,0.286-0.214,0.5-0.5,0.5h-27c-0.286,0-0.5-0.214-0.5-0.5v-27C36,36.214,36.214,36,36.5,36z"/>
<g>
</g>
<g>
</g>
<g>
</g>
<g>
</g>
<g>
</g>
<g>
</g>
<g>
</g>
<g>
</g>
<g>
</g>
<g>
</g>
<g>
</g>
<g>
</g>
<g>
</g>
<g>
</g>
<g>
</g>
</svg>
