<?xml version="1.0" encoding="utf-8"?>
<!-- Generator: Adobe Illustrator 16.0.0, SVG Export Plug-In . SVG Version: 6.00 Build 0)  -->
<!DOCTYPE svg PUBLIC "-//W3C//DTD SVG 1.1//EN" "http://www.w3.org/Graphics/SVG/1.1/DTD/svg11.dtd">
<svg version="1.1" id="Layer_1" xmlns="http://www.w3.org/2000/svg" xmlns:xlink="http://www.w3.org/1999/xlink" x="0px" y="0px"
	 width="177px" height="100px" viewBox="0 0 177 100" enable-background="new 0 0 177 100" xml:space="preserve">
<rect fill="#424242" width="177" height="100"/>
<path fill="#9E9E9E" d="M94.667,47c-0.401,0-0.76,0.207-1.021,0.48l-5.993,6.295c-0.26,0.291-0.543,0.269-0.792,0l-2.996-3.25
	c-0.3-0.323-0.686-0.52-1.107-0.525c-0.422-0.005-0.814,0.205-1.115,0.543l-4.984,5.593c-0.48,0.48,0.26,1.21,0.737,0.683
	l4.986-5.594c0.355-0.41,0.626-0.154,0.776,0.019l2.996,3.25C86.453,54.818,86.841,55,87.257,55s0.8-0.188,1.102-0.506l5.993-6.297
	c0.311-0.317,0.619-0.162,0.793,0l4.486,4.636c0.471,0.498,1.197-0.24,0.707-0.718L95.85,47.48C95.512,47.13,95.084,47,94.665,47
	H94.667z M77,59h23c0.277,0,0.5,0.223,0.5,0.5S100.277,60,100,60H77c-0.277,0-0.5-0.223-0.5-0.5S76.723,59,77,59z M82,41
	c-1.375,0-2.5,1.125-2.5,2.5S80.625,46,82,46s2.5-1.125,2.5-2.5S83.375,41,82,41z M82,42c0.834,0,1.5,0.666,1.5,1.5S82.834,45,82,45
	s-1.5-0.666-1.5-1.5S81.166,42,82,42z M75,35c-0.822,0-1.5,0.678-1.5,1.5v27c0,0.822,0.678,1.5,1.5,1.5h27
	c0.822,0,1.5-0.678,1.5-1.5v-27c0-0.822-0.678-1.5-1.5-1.5H75z M75,36h27c0.286,0,0.5,0.214,0.5,0.5v27c0,0.286-0.214,0.5-0.5,0.5
	H75c-0.286,0-0.5-0.214-0.5-0.5v-27C74.5,36.214,74.714,36,75,36z"/>
<g>
</g>
<g>
</g>
<g>
</g>
<g>
</g>
<g>
</g>
<g>
</g>
<g>
</g>
<g>
</g>
<g>
</g>
<g>
</g>
<g>
</g>
<g>
</g>
<g>
</g>
<g>
</g>
<g>
</g>
</svg>
